<?xml version="1.0" encoding="UTF-8"?>
<svg width="120px" height="108px" viewBox="0 0 120 108" version="1.1" xmlns="http://www.w3.org/2000/svg" xmlns:xlink="http://www.w3.org/1999/xlink">
    <!-- Generator: Sketch 52.5 (67469) - http://www.bohemiancoding.com/sketch -->
    <title>blood</title>
    <desc>Created with Sketch.</desc>
    <g id="Page-1" stroke="none" stroke-width="1" fill="none" fill-rule="evenodd">
        <g id="Desktop" transform="translate(-700.000000, -342.000000)">
            <g id="Group-5" transform="translate(610.000000, 297.000000)">
                <g id="blood" transform="translate(90.000000, 45.000000)">
                    <path d="M18.9968398,105 C27.2804336,104.995642 33.9947694,98.2818751 34,89.9981115 C34,82.7057463 21.7572948,67.3736077 19.3049616,64.372914 L19,64 L18.6950384,64.372914 C16.241125,67.3751879 4,82.702586 4,89.9981115 C4.00522647,98.2794093 10.7157143,104.992156 18.9968398,105 Z" id="Path" fill="#FF5072"></path>
                    <path d="M94.5007972,36 L94.1946906,36.3673131 C92.0232472,38.9589987 73,61.9988313 73,72.7407689 C73,84.481918 82.6258779,94 94.5,94 C106.374122,94 116,84.481918 116,72.7407689 C116,62.0035606 96.9767528,38.9589987 94.8069037,36.3673131 L94.5007972,36 Z" id="Path" fill="#FFFFFF"></path>
                    <path d="M87,41.689883 L86.9131044,41.4811799 C81.2127498,27.6577615 66.7390946,9.57964583 62.43697,4.3683926 L62.1320453,4 L61.8271206,4.3683926 C55.5342957,11.9923802 35.000064,37.873146 35.000064,50.842779 C34.981088,59.5905143 39.1830592,67.8093879 46.2831783,72.9120621 C53.3832974,78.0147362 62.5081798,79.3735314 70.785272,76.5606931 L71.0917766,76.4579226 L71.0522786,76.1417058 C70.9196024,75.1383498 70.8504745,74.1276004 70.845309,73.1155108 C70.845309,64.8938734 79.5569927,51.5969561 86.8657067,41.8811942 L87,41.689883 Z" id="Path" fill="#FF5072"></path>
                    <path d="M96.5675319,32.795556 C96.1799282,32.3776344 95.6340995,32.139893 95.0622003,32.139893 C94.490301,32.139893 93.9444723,32.3776344 93.5568687,32.795556 C93.3017546,33.0900417 91.5159559,35.1687648 89.0424584,38.2931485 C81.4508335,21.7578515 64.068215,1.56431687 63.2854426,0.655662928 C62.8978389,0.237741385 62.3520103,0 61.780111,0 C61.2082118,0 60.6623831,0.237741385 60.2747794,0.655662928 C59.0800215,2.03832872 31.0000414,34.6947529 31.0000414,51.0489491 C30.9839361,60.8193892 35.6728479,70.007626 43.6141683,75.7671762 C51.5554888,81.5267265 61.7903497,83.162158 71.1480272,80.1668198 C74.6234755,92.00119 86.3263755,99.4945765 98.6058728,97.7481243 C110.88537,96.0016721 120.003832,85.5469663 119.999999,73.2188454 C119.999999,60.0425759 97.5246058,33.9026335 96.5675319,32.795556 Z M61.7912029,77.6959739 C46.9882883,77.6794845 34.9922931,65.7574489 34.9757013,51.0457995 C34.9757013,38.1655905 55.9346708,12.0539943 61.7912029,5.00838302 C66.4498081,10.6114865 80.6474618,28.2790577 86.2789866,41.8726466 C79.3924907,50.9639104 70.1323245,64.7590725 70.1323245,73.2204202 C70.1388312,74.2447559 70.209215,75.267706 70.3430709,76.2833871 C67.5888433,77.2138337 64.7001976,77.6909765 61.7912029,77.6959739 Z M95.0669539,94.0627684 C83.4891885,94.0497507 74.106822,84.7252298 74.0937235,73.2188454 C74.0937235,64.1905733 88.0552778,45.5545061 95.0653694,37.134103 C102.075461,45.5545061 116.037015,64.1905733 116.037015,73.2188454 C116.023047,84.7233869 106.642864,94.0464426 95.0669539,94.0611936 L95.0669539,94.0627684 Z" id="Shape" fill="#43222E" fill-rule="nonzero"></path>
                    <path d="M17.0122185,59.6522313 C15.2700413,61.6920121 0,79.8706657 0,89.5282739 C0.0936659907,99.7573816 8.34890099,108 18.5,108 C28.651099,108 36.906334,99.7573816 37,89.5282739 C37,79.8706657 21.7346843,61.6920121 19.9877815,59.6522313 C19.6031204,59.2362399 19.0642421,59 18.5,59 C17.9357579,59 17.3968796,59.2362399 17.0122185,59.6522313 Z M18.5055132,104.208346 C10.4669282,104.199599 3.95228871,97.6353269 3.94273915,89.5346234 C3.94273915,83.2740043 13.38137,70.3543342 18.5055132,64.0429191 C23.6296564,70.3543342 33.0682873,83.2724169 33.0682873,89.5346234 C33.0596041,97.6356891 26.5444576,104.200472 18.5055132,104.208346 Z" id="Shape" fill="#43222E" fill-rule="nonzero"></path>
                </g>
            </g>
        </g>
    </g>
</svg>