<?xml version="1.0" encoding="UTF-8"?>
<svg width="100px" height="100px" viewBox="0 0 100 100" version="1.1" xmlns="http://www.w3.org/2000/svg" xmlns:xlink="http://www.w3.org/1999/xlink">
    <!-- Generator: Sketch 52.5 (67469) - http://www.bohemiancoding.com/sketch -->
    <title>blood-transfusion</title>
    <desc>Created with Sketch.</desc>
    <g id="Page-1" stroke="none" stroke-width="1" fill="none" fill-rule="evenodd">
        <g id="Desktop" transform="translate(-390.000000, -342.000000)">
            <g id="Group-7" transform="translate(290.000000, 297.000000)">
                <g id="blood-transfusion" transform="translate(100.000000, 45.000000)">
                    <g id="Group" transform="translate(56.451613, 1.612903)" fill="#F0D0B4">
                        <path d="M41.9354839,4.03225806 L41.9354839,28.2258065 C41.9354839,30.4514238 40.1288431,32.2580645 37.9032258,32.2580645 C36.7904171,32.2580645 35.774477,31.8067982 35.0483556,31.0806766 C34.3222341,30.3545552 33.8709677,29.3386151 33.8709677,28.2258065 L33.8709677,4.03225806 C33.8709677,1.80664073 35.6776085,0 37.9032258,0 C39.0160345,0 40.0319746,0.451266331 40.758096,1.1773879 C41.4842175,1.90350927 41.9354839,2.9194494 41.9354839,4.03225806 Z" id="Path"></path>
                        <path d="M33.8709677,4.03225806 L33.8709677,28.2258065 C33.8709677,30.4514238 32.064327,32.2580645 29.8387097,32.2580645 C28.725901,32.2580645 27.7099609,31.8067982 26.9838395,31.0806766 C26.2577179,30.3545552 25.8064516,29.3386151 25.8064516,28.2258065 L25.8064516,18.4838081 C26.2900077,18.2097403 26.7420615,17.8545552 27.1452873,17.4678679 C28.3061367,16.29048 29.0322581,14.6775768 29.0322581,12.9032258 C29.0322581,12.016444 28.3061367,11.2903226 27.4193548,11.2903226 L25.8064516,11.2903226 L25.8064516,4.03225806 C25.8064516,1.80664073 27.6130923,0 29.8387097,0 C30.9515183,0 31.9674585,0.451266331 32.6935798,1.1773879 C33.4197014,1.90350927 33.8709677,2.9194494 33.8709677,4.03225806 Z" id="Path"></path>
                        <path d="M25.8064516,4.03225806 L25.8064516,11.2903226 L17.7419355,11.2903226 L17.7419355,4.03225806 C17.7419355,1.80664073 19.5485762,0 21.7741935,0 C22.8870022,0 23.9029423,0.451266331 24.6290637,1.1773879 C25.3551853,1.90350927 25.8064516,2.9194494 25.8064516,4.03225806 Z" id="Path"></path>
                        <path d="M18.016003,30.2576865 C16.5968371,27.6453819 14.7098665,25.2740675 12.4031313,23.290228 L9.67741935,20.9677419 L9.67741935,19.3548387 L17.7419355,19.3548387 L17.7419355,28.2258065 C17.7419355,28.9196383 17.9191343,29.5803931 18.2254915,30.1450667 L18.016003,30.2576865 Z" id="Path"></path>
                        <path d="M25.8064516,19.3548387 L25.8064516,28.2258065 C25.8064516,30.4514238 23.9998109,32.2580645 21.7741935,32.2580645 C20.6613849,32.2580645 19.6454448,31.8067982 18.9193234,31.0806766 C18.6452558,30.8066091 18.4192288,30.500252 18.2254915,30.1450667 C17.9191343,29.5803931 17.7419355,28.9196383 17.7419355,28.2258065 L17.7419355,19.3548387 L22.5806452,19.3548387 C23.7580331,19.3548387 24.8550907,19.0319431 25.8064516,18.4838081 L25.8064516,19.3548387 Z" id="Path"></path>
                        <path d="M18.016003,30.2576865 L18.2254915,30.1450667 C18.4192288,30.500252 18.6452558,30.8066091 18.9193234,31.0806766 C19.6454448,31.8067982 20.6613849,32.2580645 21.7741935,32.2580645 C23.9998109,32.2580645 25.8064516,30.4514238 25.8064516,28.2258065 C25.8064516,29.3386151 26.2577179,30.3545552 26.9838395,31.0806766 C27.7099609,31.8067982 28.725901,32.2580645 29.8387097,32.2580645 C32.064327,32.2580645 33.8709677,30.4514238 33.8709677,28.2258065 C33.8709677,29.3386151 34.3222341,30.3545552 35.0483556,31.0806766 C35.774477,31.8067982 36.7904171,32.2580645 37.9032258,32.2580645 C40.1288431,32.2580645 41.9354839,30.4514238 41.9354839,28.2258065 L41.9354839,35.774477 C41.9354839,36.6455079 41.7582851,37.515751 41.4196383,38.3064516 L37.6126198,47.1774194 C37.273973,47.96812 37.0967742,48.8383631 37.0967742,49.709394 L37.0967742,96.7741935 L6.4516129,96.7741935 L6.4516129,47.1128403 C6.4516129,45.8385837 6.08067661,44.5966167 5.37109375,43.5326361 L1.08051915,37.1125252 C0.37093629,36.0485446 -5.68434189e-14,34.8065776 -5.68434189e-14,33.532321 L-5.68434189e-14,14.516129 C-5.68434189e-14,12.741778 1.45145544,11.2903226 3.22580645,11.2903226 L27.4193548,11.2903226 C28.3061367,11.2903226 29.0322581,12.016444 29.0322581,12.9032258 C29.0322581,14.6775768 28.3061367,16.29048 27.1452873,17.4678679 C26.7420615,17.8545552 26.2900077,18.2097403 25.8064516,18.4838081 C24.8550907,19.0319431 23.7580331,19.3548387 22.5806452,19.3548387 L9.67741935,19.3548387 L9.67741935,20.9677419 L12.4031312,23.290228 C14.7098665,25.2740675 16.5968371,27.6453819 18.016003,30.2576865 Z" id="Path"></path>
                        <path d="M17.7419355,4.03225806 L17.7419355,11.2903226 L9.67741935,11.2903226 L9.67741935,4.03225806 C9.67741935,1.80664073 11.4840601,0 13.7096774,0 C14.8224861,0 15.8384262,0.451266331 16.5645476,1.1773879 C17.2906692,1.90350927 17.7419355,2.9194494 17.7419355,4.03225806 Z" id="Path"></path>
                    </g>
                    <path d="M37.0967742,40.3225806 L37.0967742,46.7741935 L30.6451613,46.7741935 L30.6451613,40.3225806 C30.6451613,38.5482296 32.0966167,37.0967742 33.8709677,37.0967742 C34.7577496,37.0967742 35.5642012,37.4519595 36.1454133,38.0481351 C36.7415889,38.6293472 37.0967742,39.4357988 37.0967742,40.3225806 Z" id="Path" fill="#AAB2BD"></path>
                    <polygon id="Path" fill="#AAB2BD" points="24.1935484 37.0967742 24.1935484 46.7741935 4.83870968 46.7741935 4.83870968 37.0967742 11.2903226 37.0967742 14.516129 40.3225806 17.7419355 37.0967742"></polygon>
                    <path d="M40.3225806,50 L40.3225806,95.1612903 C40.3225806,96.9356413 38.8711252,98.3870968 37.0967742,98.3870968 L4.83870968,98.3870968 C3.06435867,98.3870968 1.61290323,96.9356413 1.61290323,95.1612903 L1.61290323,50 C1.61290323,48.225649 3.06435867,46.7741935 4.83870968,46.7741935 L37.0967742,46.7741935 C38.8711252,46.7741935 40.3225806,48.225649 40.3225806,50 Z" id="Path" fill="#E6E9ED"></path>
                    <polygon id="Path" fill="#FCD770" points="33.8709677 59.6774194 33.8709677 85.483871 8.06451613 85.483871 8.06451613 59.6774194"></polygon>
                    <path d="M25.8064516,72.5806452 C25.8064516,75.2528036 23.6399004,77.4193548 20.9677419,77.4193548 C18.2955835,77.4193548 16.1290323,75.2528036 16.1290323,72.5806452 C16.1290323,69.9084867 18.2955835,67.7419355 20.9677419,67.7419355 C23.6399004,67.7419355 25.8064516,69.9084867 25.8064516,72.5806452 Z" id="Path" fill="#E6E9ED"></path>
                    <polygon id="Path" fill="#FCD770" points="83.8709677 54.8387097 83.8709677 77.4193548 74.1935484 77.4193548 74.1935484 54.8387097"></polygon>
                    <path d="M25.8064516,26.6774823 C25.8064516,28.1777659 25.2094883,29.6292214 24.1289694,30.7097403 L14.516129,40.3225806 L4.90328871,30.7097403 C3.82276976,29.6292214 3.22580645,28.1777659 3.22580645,26.6774823 C3.22580645,25.0968687 3.87081028,23.6777028 4.90328871,22.6452242 C5.93576734,21.6127458 7.35493327,20.9677419 8.93554677,20.9677419 C10.4358304,20.9677419 11.8872859,21.5647052 12.9678048,22.6452242 L14.516129,24.1935484 L16.0644532,22.6452242 C17.1449722,21.5647052 18.5964276,20.9677419 20.0967113,20.9677419 C21.6773248,20.9677419 23.0964907,21.6127458 24.1289694,22.6452242 C25.1614478,23.6777028 25.8064516,25.0968687 25.8064516,26.6774823 Z" id="Path" fill="#FF826E"></path>
                    <path d="M94.3548387,0 C92.774225,0 91.3487589,0.656816935 90.3225806,1.70662177 C89.2964024,0.656816935 87.8709363,0 86.2903226,0 C84.7097089,0 83.2842427,0.656816935 82.2580645,1.70662177 C81.2318863,0.656816935 79.8064202,0 78.2258065,0 C76.6451927,0 75.2197266,0.656816935 74.1935484,1.70662177 C73.1673702,0.656816935 71.741904,0 70.1612903,0 C67.0481036,0 64.516129,2.5319746 64.516129,5.64516129 L64.516129,11.2903226 L59.6774194,11.2903226 C57.0099861,11.2903226 54.8387097,13.461599 54.8387097,16.1290323 L54.8387097,35.1436492 C54.8387097,36.7415889 55.3065145,38.2883379 56.1932964,39.616148 L60.4775706,46.0433468 C61.0099546,46.8403478 61.2903226,47.7680823 61.2903226,48.7273185 L61.2903226,64.516129 L54.8387097,64.516129 C52.1712764,64.516129 50,62.3448526 50,59.6774194 L50,43.5483871 L46.7741935,43.5483871 L46.7741935,59.6774194 C46.7741935,64.123929 50.3922,67.7419355 54.8387097,67.7419355 L61.2903226,67.7419355 L61.2903226,100 L95.1612903,100 L95.1612903,51.3238722 C95.1612903,50.6662677 95.2935988,50.0244141 95.5519153,49.4195754 L99.3486958,40.5612085 C99.7802734,39.5499937 100,38.4820754 100,37.3858052 L100,5.64516129 C100,2.5319746 97.4680254,0 94.3548387,0 Z M86.2903226,3.22580645 C87.6244331,3.22580645 88.7096774,4.31105081 88.7096774,5.64516129 L88.7096774,29.8387097 C88.7096774,31.1728202 87.6244331,32.2580645 86.2903226,32.2580645 C84.9562121,32.2580645 83.8709677,31.1728202 83.8709677,29.8387097 L83.8709677,20.9260018 C85.8177923,19.4517075 87.0967742,17.1386718 87.0967742,14.516129 C87.0967742,12.7370526 85.6500442,11.2903226 83.8709677,11.2903226 L83.8709677,5.64516129 C83.8709677,4.31105081 84.9562121,3.22580645 86.2903226,3.22580645 Z M69.8966734,23.6855784 L68.6082409,22.5806452 L72.5806452,22.5806452 L72.5806452,26.3971145 C71.7497794,25.4418157 70.8708732,24.5211694 69.8966734,23.6855784 Z M75.8064516,29.8387097 L75.8064516,22.5806452 L79.0322581,22.5806452 C79.5835433,22.5806452 80.1238028,22.5239415 80.6451613,22.4176222 L80.6451613,29.8387097 C80.6451613,31.1728202 79.5599169,32.2580645 78.2258065,32.2580645 C76.891696,32.2580645 75.8064516,31.1728202 75.8064516,29.8387097 Z M78.2258065,3.22580645 C79.5599169,3.22580645 80.6451613,4.31105081 80.6451613,5.64516129 L80.6451613,11.2903226 L75.8064516,11.2903226 L75.8064516,5.64516129 C75.8064516,4.31105081 76.891696,3.22580645 78.2258065,3.22580645 Z M67.7419355,5.64516129 C67.7419355,4.31105081 68.8271798,3.22580645 70.1612903,3.22580645 C71.4954008,3.22580645 72.5806452,4.31105081 72.5806452,5.64516129 L72.5806452,11.2903226 L67.7419355,11.2903226 L67.7419355,5.64516129 Z M96.7741935,37.3858052 C96.7741935,38.0434097 96.6418851,38.6852633 96.3835685,39.290102 L92.5867881,48.148469 C92.1552105,49.1596837 91.9354839,50.227602 91.9354839,51.3238722 L91.9354839,96.7741935 L64.516129,96.7741935 L64.516129,67.7419355 L72.5806452,67.7419355 L72.5806452,79.0322581 L85.483871,79.0322581 L85.483871,53.2258065 L72.5806452,53.2258065 L72.5806452,64.516129 L64.516129,64.516129 L64.516129,48.7273185 C64.516129,47.1293788 64.0483242,45.5826298 63.1615423,44.2548198 L58.8772681,37.827621 C58.3448841,37.03062 58.0645161,36.1028855 58.0645161,35.1436492 L58.0645161,16.1290323 C58.0645161,15.2406754 58.7874875,14.516129 59.6774194,14.516129 L83.8709677,14.516129 C83.8709677,17.1835623 81.6996913,19.3548387 79.0322581,19.3548387 L64.516129,19.3548387 L64.516129,23.3225177 L67.7986391,26.1356476 C72.8870022,30.498677 75.8064516,36.8455456 75.8064516,43.5483871 L79.0322581,43.5483871 C79.0322581,40.758096 78.5794165,38.0260837 77.7335875,35.4342552 C77.8981855,35.4484312 78.0564831,35.483871 78.2258065,35.483871 C79.8064202,35.483871 81.2318863,34.827054 82.2580645,33.7772492 C83.2842427,34.827054 84.7097089,35.483871 86.2903226,35.483871 C87.8709363,35.483871 89.2964024,34.827054 90.3225806,33.7772492 C91.3487589,34.827054 92.774225,35.483871 94.3548387,35.483871 C95.219569,35.483871 96.0401966,35.2869835 96.7741935,34.9388861 L96.7741935,37.3858052 Z M75.8064516,75.8064516 L75.8064516,56.4516129 L82.2580645,56.4516129 L82.2580645,75.8064516 L75.8064516,75.8064516 Z M96.7741935,29.8387097 C96.7741935,31.1728202 95.6889492,32.2580645 94.3548387,32.2580645 C93.0207282,32.2580645 91.9354839,31.1728202 91.9354839,29.8387097 L91.9354839,5.64516129 C91.9354839,4.31105081 93.0207282,3.22580645 94.3548387,3.22580645 C95.6889492,3.22580645 96.7741935,4.31105081 96.7741935,5.64516129 L96.7741935,29.8387097 Z" id="Shape" fill="#000000" fill-rule="nonzero"></path>
                    <path d="M41.1290323,3.22580645 C44.242219,3.22580645 46.7741935,5.75778105 46.7741935,8.87096774 L46.7741935,20.9677419 L50,20.9677419 L50,8.87096774 C50,3.97870464 46.0197202,0 41.1290323,0 C36.2383444,0 32.2580645,3.97870464 32.2580645,8.87096774 L32.2580645,35.7807774 C30.3852698,36.4486202 29.0322581,38.2229714 29.0322581,40.3225806 L29.0322581,45.1612903 L25.8064516,45.1612903 L25.8064516,35.483871 L21.6355847,35.483871 L25.2772177,31.8438129 C26.6577935,30.4616621 27.4193548,28.6258821 27.4193548,26.6711819 C27.4193548,22.6373488 24.1384198,19.3548387 20.1045867,19.3548387 C18.1514617,19.3548387 16.3125315,20.1164 14.9319556,21.4969758 L14.516129,21.9128024 L14.1003024,21.4985508 C12.7197266,20.1164 10.8807964,19.3548387 8.92767137,19.3548387 C4.89383831,19.3548387 1.61290323,22.6373488 1.61290323,26.6711819 C1.61290323,28.6258821 2.37446452,30.4632371 3.75504032,31.8438129 L7.39667339,35.483871 L3.22580645,35.483871 L3.22580645,45.4581968 C1.35301169,46.1260395 0,47.9003907 0,50 L0,95.1612903 C0,97.8287236 2.17127641,100 4.83870968,100 L37.0967742,100 C39.7642075,100 41.9354839,97.8287236 41.9354839,95.1612903 L41.9354839,50 C41.9354839,47.9003907 40.5824722,46.1260395 38.7096774,45.4581968 L38.7096774,40.3225806 C38.7096774,38.2229714 37.3566657,36.4486202 35.483871,35.7807774 L35.483871,8.87096774 C35.483871,5.75778105 38.0158456,3.22580645 41.1290323,3.22580645 Z M32.2580645,40.3225806 C32.2580645,39.4342238 32.9810359,38.7096774 33.8709677,38.7096774 C34.7608996,38.7096774 35.483871,39.4342238 35.483871,40.3225806 L35.483871,45.1612903 L32.2580645,45.1612903 L32.2580645,40.3225806 Z M4.83870968,26.6711819 C4.83870968,24.4164252 6.67448972,22.5806452 8.92767137,22.5806452 C10.0192161,22.5806452 11.0453944,23.0067099 11.8195565,23.7792968 L14.516129,26.4742944 L17.2127016,23.7792968 C17.9852885,23.0067099 19.0130419,22.5806452 20.1045867,22.5806452 C22.3577683,22.5806452 24.1935484,24.4164252 24.1935484,26.6711819 C24.1935484,27.764302 23.7674837,28.79048 22.9964718,29.5630669 L14.516129,38.0418347 L6.03578629,29.5630669 C5.2647744,28.79048 4.83870968,27.7627268 4.83870968,26.6711819 Z M10.6224798,38.7096774 L14.516129,42.6033266 L18.4097782,38.7096774 L22.5806452,38.7096774 L22.5806452,45.1612903 L6.4516129,45.1612903 L6.4516129,38.7096774 L10.6224798,38.7096774 Z M38.7096774,95.1612903 C38.7096774,96.0512222 37.986706,96.7741935 37.0967742,96.7741935 L4.83870968,96.7741935 C3.94877782,96.7741935 3.22580645,96.0512222 3.22580645,95.1612903 L3.22580645,50 C3.22580645,49.1116431 3.94877782,48.3870968 4.83870968,48.3870968 L37.0967742,48.3870968 C37.986706,48.3870968 38.7096774,49.1116431 38.7096774,50 L38.7096774,95.1612903 Z" id="Shape" fill="#000000" fill-rule="nonzero"></path>
                    <polygon id="Path" fill="#000000" points="46.7741935 24.1935484 50 24.1935484 50 27.4193548 46.7741935 27.4193548"></polygon>
                    <polygon id="Path" fill="#000000" points="46.7741935 30.6451613 50 30.6451613 50 33.8709677 46.7741935 33.8709677"></polygon>
                    <polygon id="Path" fill="#000000" points="46.7741935 37.0967742 50 37.0967742 50 40.3225806 46.7741935 40.3225806"></polygon>
                    <path d="M6.4516129,87.0967742 L35.483871,87.0967742 L35.483871,58.0645161 L6.4516129,58.0645161 L6.4516129,87.0967742 Z M9.67741935,61.2903226 L32.2580645,61.2903226 L32.2580645,83.8709677 L9.67741935,83.8709677 L9.67741935,61.2903226 Z" id="Shape" fill="#000000" fill-rule="nonzero"></path>
                    <path d="M20.9677419,66.1290323 C17.4095891,66.1290323 14.516129,69.0224923 14.516129,72.5806452 C14.516129,76.138798 17.4095891,79.0322581 20.9677419,79.0322581 C24.5258948,79.0322581 27.4193548,76.138798 27.4193548,72.5806452 C27.4193548,69.0224923 24.5258948,66.1290323 20.9677419,66.1290323 Z M20.9677419,75.8064516 C19.1886655,75.8064516 17.7419355,74.3597216 17.7419355,72.5806452 C17.7419355,70.8015687 19.1886655,69.3548387 20.9677419,69.3548387 C22.7468183,69.3548387 24.1935484,70.8015687 24.1935484,72.5806452 C24.1935484,74.3597216 22.7468183,75.8064516 20.9677419,75.8064516 Z" id="Shape" fill="#000000" fill-rule="nonzero"></path>
                </g>
            </g>
        </g>
    </g>
</svg>