<?xml version="1.0" encoding="UTF-8"?>
<svg width="195px" height="68px" viewBox="0 0 195 68" version="1.1" xmlns="http://www.w3.org/2000/svg" xmlns:xlink="http://www.w3.org/1999/xlink">
    <!-- Generator: Sketch 52.5 (67469) - http://www.bohemiancoding.com/sketch -->
    <title>Group 2</title>
    <desc>Created with Sketch.</desc>
    <defs>
        <polygon id="path-1" points="0 3.984375e-05 51.9604121 3.984375e-05 51.9604121 68 0 68"></polygon>
    </defs>
    <g id="Page-1" stroke="none" stroke-width="1" fill="none" fill-rule="evenodd">
        <g id="Desktop" transform="translate(-133.000000, -16.000000)">
            <g id="Group-4">
                <g id="Group-2" transform="translate(133.000000, 16.000000)">
                    <g id="Group-6">
                        <g id="Group-3">
                            <mask id="mask-2" fill="white">
                                <use xlink:href="#path-1"></use>
                            </mask>
                            <g id="Clip-2"></g>
                            <path d="M28.4753568,67.1416727 C27.1031055,68.286118 24.8573065,68.286118 23.4850553,67.1416727 C23.4850553,67.1416727 0,47.5566102 0,26.4095398 C0.000261306533,11.8239383 11.6319296,3.984375e-05 25.9802714,3.984375e-05 C40.3286131,3.984375e-05 51.9604121,11.8239383 51.9604121,26.4095398 C51.9604121,47.5566102 28.4753568,67.1416727 28.4753568,67.1416727 Z" id="Fill-1" fill="#FF353E" mask="url(#mask-2)"></path>
                        </g>
                        <path d="M32.812401,18.0166162 C30.8886736,18.0166162 29.080805,18.7709394 27.7193334,20.1408536 L27.0083223,20.8562738 L26.286171,20.1297762 C24.9246994,18.7598619 23.1113262,18 21.1875988,18 C19.2695071,18 17.4615074,18.7543232 16.1055404,20.1186987 C14.7440688,21.488481 13.9945255,23.3076923 14.0000301,25.2433489 C14.0000301,27.1788737 14.755078,28.9925462 16.1165496,30.3624604 L26.4680849,40.7780549 C26.6114667,40.9223258 26.8043899,41 26.9916775,41 C27.1790961,41 27.3720192,40.9278645 27.515401,40.7835936 L37.8889548,30.3846154 C39.2504264,29.0147012 39.9999697,27.1954899 39.9999697,25.2599651 C40.0054743,23.3243085 39.2614356,21.5052291 37.899964,20.1353149 C36.5384924,18.7654007 34.7361284,18.0166162 32.812401,18.0166162 Z" id="Fill-4" fill="#FFE2D7"></path>
                    </g>
                    <text id="Bloody" font-family="Roboto-Light, Roboto" font-size="42" font-weight="300" fill="#FFFFFF">
                        <tspan x="70" y="49">Bloody</tspan>
                    </text>
                </g>
            </g>
        </g>
    </g>
</svg>